<?xml version="1.0" encoding="UTF-8"?><svg xmlns="http://www.w3.org/2000/svg" xmlns:xlink="http://www.w3.org/1999/xlink" fill-opacity="1" color-rendering="auto" color-interpolation="auto" text-rendering="auto" stroke="black" stroke-linecap="square" width="789" stroke-miterlimit="10" shape-rendering="auto" stroke-opacity="1" fill="black" stroke-dasharray="none" font-weight="normal" stroke-width="1" height="511" font-family="'Dialog'" font-style="normal" stroke-linejoin="miter" font-size="12px" stroke-dashoffset="0" image-rendering="auto">
  <!--Generated by ySVG 2.5-->
  <defs id="genericDefs"/>
  <g>
    <defs id="defs1">
      <linearGradient x1="169" gradientUnits="userSpaceOnUse" x2="249" y1="81.5146" y2="121.5146" id="linearGradient1" spreadMethod="reflect">
        <stop stop-opacity="1" stop-color="rgb(153,204,0)" offset="0%"/>
        <stop stop-opacity="1" stop-color="rgb(183,201,227)" offset="100%"/>
      </linearGradient>
      <linearGradient x1="169" gradientUnits="userSpaceOnUse" x2="249" y1="235.0073" y2="275.0073" id="linearGradient2" spreadMethod="reflect">
        <stop stop-opacity="1" stop-color="rgb(232,238,247)" offset="0%"/>
        <stop stop-opacity="1" stop-color="rgb(183,201,227)" offset="100%"/>
      </linearGradient>
      <linearGradient x1="650.9858" gradientUnits="userSpaceOnUse" x2="730.9858" y1="172.5146" y2="212.5146" id="linearGradient3" spreadMethod="reflect">
        <stop stop-opacity="1" stop-color="rgb(232,238,247)" offset="0%"/>
        <stop stop-opacity="1" stop-color="rgb(183,201,227)" offset="100%"/>
      </linearGradient>
      <linearGradient x1="279" gradientUnits="userSpaceOnUse" x2="359" y1="235.0073" y2="275.0073" id="linearGradient4" spreadMethod="reflect">
        <stop stop-opacity="1" stop-color="rgb(232,238,247)" offset="0%"/>
        <stop stop-opacity="1" stop-color="rgb(183,201,227)" offset="100%"/>
      </linearGradient>
      <linearGradient x1="632.9858" gradientUnits="userSpaceOnUse" x2="748.9858" y1="265.0391" y2="335.0391" id="linearGradient5" spreadMethod="reflect">
        <stop stop-opacity="1" stop-color="rgb(232,238,247)" offset="0%"/>
        <stop stop-opacity="1" stop-color="rgb(183,201,227)" offset="100%"/>
      </linearGradient>
      <linearGradient x1="789.4858" gradientUnits="userSpaceOnUse" x2="869.4858" y1="172.5146" y2="212.5146" id="linearGradient6" spreadMethod="reflect">
        <stop stop-opacity="1" stop-color="rgb(232,238,247)" offset="0%"/>
        <stop stop-opacity="1" stop-color="rgb(255,102,0)" offset="100%"/>
      </linearGradient>
      <linearGradient x1="401.9858" gradientUnits="userSpaceOnUse" x2="481.9858" y1="407" y2="447" id="linearGradient7" spreadMethod="reflect">
        <stop stop-opacity="1" stop-color="rgb(232,238,247)" offset="0%"/>
        <stop stop-opacity="1" stop-color="rgb(183,201,227)" offset="100%"/>
      </linearGradient>
      <linearGradient x1="632.9858" gradientUnits="userSpaceOnUse" x2="748.9858" y1="403.5" y2="450.5" id="linearGradient8" spreadMethod="reflect">
        <stop stop-opacity="1" stop-color="rgb(232,238,247)" offset="0%"/>
        <stop stop-opacity="1" stop-color="rgb(183,201,227)" offset="100%"/>
      </linearGradient>
      <linearGradient x1="522.9858" gradientUnits="userSpaceOnUse" x2="602.9858" y1="407" y2="447" id="linearGradient9" spreadMethod="reflect">
        <stop stop-opacity="1" stop-color="rgb(232,238,247)" offset="0%"/>
        <stop stop-opacity="1" stop-color="rgb(183,201,227)" offset="100%"/>
      </linearGradient>
      <linearGradient x1="778.9858" gradientUnits="userSpaceOnUse" x2="883.9858" y1="403.5" y2="447" id="linearGradient10" spreadMethod="reflect">
        <stop stop-opacity="1" stop-color="rgb(232,238,247)" offset="0%"/>
        <stop stop-opacity="1" stop-color="rgb(183,201,227)" offset="100%"/>
      </linearGradient>
      <linearGradient x1="396.9858" gradientUnits="userSpaceOnUse" x2="486.9858" y1="67.5146" y2="121.5146" id="linearGradient11" spreadMethod="reflect">
        <stop stop-opacity="1" stop-color="rgb(232,238,247)" offset="0%"/>
        <stop stop-opacity="1" stop-color="rgb(183,201,227)" offset="100%"/>
      </linearGradient>
      <linearGradient x1="517.9858" gradientUnits="userSpaceOnUse" x2="607.9858" y1="67.5146" y2="121.5146" id="linearGradient12" spreadMethod="reflect">
        <stop stop-opacity="1" stop-color="rgb(232,238,247)" offset="0%"/>
        <stop stop-opacity="1" stop-color="rgb(183,201,227)" offset="100%"/>
      </linearGradient>
      <linearGradient x1="643.9858" gradientUnits="userSpaceOnUse" x2="739.9858" y1="67.5146" y2="121.5146" id="linearGradient13" spreadMethod="reflect">
        <stop stop-opacity="1" stop-color="rgb(232,238,247)" offset="0%"/>
        <stop stop-opacity="1" stop-color="rgb(183,201,227)" offset="100%"/>
      </linearGradient>
      <linearGradient x1="781.4858" gradientUnits="userSpaceOnUse" x2="877.4858" y1="67.5146" y2="121.5146" id="linearGradient14" spreadMethod="reflect">
        <stop stop-opacity="1" stop-color="rgb(232,238,247)" offset="0%"/>
        <stop stop-opacity="1" stop-color="rgb(183,201,227)" offset="100%"/>
      </linearGradient>
      <linearGradient x1="522.9858" gradientUnits="userSpaceOnUse" x2="602.9858" y1="280.0391" y2="320.0391" id="linearGradient15" spreadMethod="reflect">
        <stop stop-opacity="1" stop-color="rgb(232,238,247)" offset="0%"/>
        <stop stop-opacity="1" stop-color="rgb(183,201,227)" offset="100%"/>
      </linearGradient>
      <clipPath clipPathUnits="userSpaceOnUse" id="clipPath1">
        <path d="M0 0 L789 0 L789 511 L0 511 L0 0 Z"/>
      </clipPath>
      <clipPath clipPathUnits="userSpaceOnUse" id="clipPath2">
        <path d="M154 16 L943 16 L943 527 L154 527 L154 16 Z"/>
      </clipPath>
    </defs>
    <g fill="white" text-rendering="geometricPrecision" shape-rendering="geometricPrecision" transform="translate(-154,-16)" stroke="white">
      <rect x="154" width="789" height="511" y="16" clip-path="url(#clipPath2)" stroke="none"/>
    </g>
    <g fill="url(#linearGradient1)" text-rendering="geometricPrecision" shape-rendering="geometricPrecision" transform="matrix(1,0,0,1,-154,-16)" stroke="url(#linearGradient1)">
      <rect x="169" y="81.5146" clip-path="url(#clipPath2)" width="80" rx="20" ry="20" height="40" stroke="none"/>
    </g>
    <g text-rendering="geometricPrecision" stroke-miterlimit="1.45" shape-rendering="geometricPrecision" transform="matrix(1,0,0,1,-154,-16)" stroke-linecap="butt">
      <rect x="169" y="81.5146" clip-path="url(#clipPath2)" fill="none" width="80" rx="20" ry="20" height="40"/>
      <text x="194.3428" xml:space="preserve" y="105.6689" clip-path="url(#clipPath2)" font-family="sans-serif" stroke="none">Start</text>
    </g>
    <g fill="url(#linearGradient2)" text-rendering="geometricPrecision" shape-rendering="geometricPrecision" transform="matrix(1,0,0,1,-154,-16)" stroke="url(#linearGradient2)">
      <path d="M169 235.0073 L249 235.0073 L249 275.0073 L169 275.0073 Z" stroke="none" clip-path="url(#clipPath2)"/>
    </g>
    <g text-rendering="geometricPrecision" stroke-miterlimit="1.45" shape-rendering="geometricPrecision" transform="matrix(1,0,0,1,-154,-16)" stroke-linecap="butt">
      <path fill="none" d="M169 235.0073 L249 235.0073 L249 275.0073 L169 275.0073 Z" clip-path="url(#clipPath2)"/>
      <text x="192.1484" xml:space="preserve" y="259.1616" clip-path="url(#clipPath2)" font-family="sans-serif" stroke="none">Greet</text>
    </g>
    <g fill="url(#linearGradient3)" text-rendering="geometricPrecision" shape-rendering="geometricPrecision" transform="matrix(1,0,0,1,-154,-16)" stroke="url(#linearGradient3)">
      <path d="M650.9858 172.5146 L730.9858 172.5146 L730.9858 212.5146 L650.9858 212.5146 Z" stroke="none" clip-path="url(#clipPath2)"/>
    </g>
    <g text-rendering="geometricPrecision" stroke-miterlimit="1.45" shape-rendering="geometricPrecision" transform="matrix(1,0,0,1,-154,-16)" stroke-linecap="butt">
      <path fill="none" d="M650.9858 172.5146 L730.9858 172.5146 L730.9858 212.5146 L650.9858 212.5146 Z" clip-path="url(#clipPath2)"/>
      <text x="670.9995" xml:space="preserve" y="189.6846" clip-path="url(#clipPath2)" font-family="sans-serif" stroke="none">Modify</text>
      <text x="672.9712" xml:space="preserve" y="203.6533" clip-path="url(#clipPath2)" font-family="sans-serif" stroke="none">Model</text>
    </g>
    <g fill="url(#linearGradient4)" text-rendering="geometricPrecision" shape-rendering="geometricPrecision" transform="matrix(1,0,0,1,-154,-16)" stroke="url(#linearGradient4)">
      <path d="M289.2 235.0073 L359 235.0073 L348.8 275.0073 L279 275.0073 Z" stroke="none" clip-path="url(#clipPath2)"/>
    </g>
    <g text-rendering="geometricPrecision" stroke-miterlimit="1.45" shape-rendering="geometricPrecision" transform="matrix(1,0,0,1,-154,-16)" stroke-linecap="butt">
      <path fill="none" d="M289.2 235.0073 L359 235.0073 L348.8 275.0073 L279 275.0073 Z" clip-path="url(#clipPath2)"/>
      <text x="310.4863" xml:space="preserve" y="259.1616" clip-path="url(#clipPath2)" font-family="sans-serif" stroke="none">I/O</text>
    </g>
    <g fill="url(#linearGradient5)" text-rendering="geometricPrecision" shape-rendering="geometricPrecision" transform="matrix(1,0,0,1,-154,-16)" stroke="url(#linearGradient5)">
      <path d="M690.9858 265.0391 L748.9858 300.0391 L690.9858 335.0391 L632.9858 300.0391 Z" stroke="none" clip-path="url(#clipPath2)"/>
    </g>
    <g text-rendering="geometricPrecision" stroke-miterlimit="1.45" shape-rendering="geometricPrecision" transform="matrix(1,0,0,1,-154,-16)" stroke-linecap="butt">
      <path fill="none" d="M690.9858 265.0391 L748.9858 300.0391 L690.9858 335.0391 L632.9858 300.0391 Z" clip-path="url(#clipPath2)"/>
      <text x="662.6704" xml:space="preserve" y="297.209" clip-path="url(#clipPath2)" font-family="sans-serif" stroke="none">Sufficient</text>
      <text x="652.9644" xml:space="preserve" y="311.1777" clip-path="url(#clipPath2)" font-family="sans-serif" stroke="none">Information?</text>
    </g>
    <g fill="url(#linearGradient6)" text-rendering="geometricPrecision" shape-rendering="geometricPrecision" transform="matrix(1,0,0,1,-154,-16)" stroke="url(#linearGradient6)">
      <rect x="789.4858" y="172.5146" clip-path="url(#clipPath2)" width="80" rx="20" ry="20" height="40" stroke="none"/>
    </g>
    <g text-rendering="geometricPrecision" stroke-miterlimit="1.45" shape-rendering="geometricPrecision" transform="matrix(1,0,0,1,-154,-16)" stroke-linecap="butt">
      <rect x="789.4858" y="172.5146" clip-path="url(#clipPath2)" fill="none" width="80" rx="20" ry="20" height="40"/>
      <text x="813.6714" xml:space="preserve" y="196.6689" clip-path="url(#clipPath2)" font-family="sans-serif" stroke="none">STOP</text>
    </g>
    <g text-rendering="geometricPrecision" stroke-miterlimit="1.45" shape-rendering="geometricPrecision" transform="matrix(1,0,0,1,-154,-16)" stroke-linecap="butt">
      <path fill="none" d="M209 121.4882 L209 227.0251" clip-path="url(#clipPath2)"/>
    </g>
    <g text-rendering="geometricPrecision" stroke-miterlimit="1.45" shape-rendering="geometricPrecision" transform="matrix(1,0,0,1,-154,-16)" stroke-linecap="butt">
      <path d="M209 235.0251 L214 223.0251 L209 226.0251 L204 223.0251 Z" stroke="none" clip-path="url(#clipPath2)"/>
      <path fill="none" d="M248.9878 255.0073 L276.0965 255.0073" clip-path="url(#clipPath2)"/>
      <path d="M284.0965 255.0073 L272.0965 250.0073 L275.0965 255.0073 L272.0965 260.0073 Z" clip-path="url(#clipPath2)" stroke="none"/>
      <path fill="none" d="M690.9858 212.4917 L690.9858 257.0287" clip-path="url(#clipPath2)"/>
      <path d="M690.9858 265.0287 L695.9858 253.0287 L690.9858 256.0287 L685.9858 253.0287 Z" clip-path="url(#clipPath2)" stroke="none"/>
    </g>
    <g fill="rgb(245,245,245)" text-rendering="geometricPrecision" shape-rendering="geometricPrecision" transform="matrix(1,0,0,1,-154,-16)" stroke="rgb(245,245,245)">
      <rect x="368.9858" y="388.5" clip-path="url(#clipPath2)" width="530.5142" rx="4" ry="4" height="123.4609" stroke="none"/>
      <rect x="368.9858" y="490.5" clip-path="url(#clipPath2)" fill="rgb(235,235,235)" width="530.5142" height="21.4609" stroke="none"/>
    </g>
    <g font-size="15px" stroke-linecap="butt" transform="matrix(1,0,0,1,-154,-16)" text-rendering="geometricPrecision" font-family="sans-serif" shape-rendering="geometricPrecision" stroke-miterlimit="1.45">
      <text x="553.6619" xml:space="preserve" y="506.4233" clip-path="url(#clipPath2)" stroke="none">Response Generation</text>
      <rect x="368.9858" y="388.5" clip-path="url(#clipPath2)" fill="none" width="530.5142" stroke-dasharray="6,2" rx="4" ry="4" height="123.4609"/>
    </g>
    <g fill="url(#linearGradient7)" text-rendering="geometricPrecision" shape-rendering="geometricPrecision" transform="matrix(1,0,0,1,-154,-16)" stroke="url(#linearGradient7)">
      <path d="M401.9858 407 L481.9858 407 L481.9858 447 L401.9858 447 Z" stroke="none" clip-path="url(#clipPath2)"/>
    </g>
    <g text-rendering="geometricPrecision" stroke-miterlimit="1.45" shape-rendering="geometricPrecision" transform="matrix(1,0,0,1,-154,-16)" stroke-linecap="butt">
      <path fill="none" d="M401.9858 407 L481.9858 407 L481.9858 447 L401.9858 447 Z" clip-path="url(#clipPath2)"/>
      <text x="419.8872" xml:space="preserve" y="431.1543" clip-path="url(#clipPath2)" font-family="sans-serif" stroke="none">Answer</text>
    </g>
    <g fill="url(#linearGradient8)" text-rendering="geometricPrecision" shape-rendering="geometricPrecision" transform="matrix(1,0,0,1,-154,-16)" stroke="url(#linearGradient8)">
      <path d="M632.9858 403.5 L748.9858 403.5 L748.9858 450.5 L632.9858 450.5 Z" stroke="none" clip-path="url(#clipPath2)"/>
    </g>
    <g text-rendering="geometricPrecision" stroke-miterlimit="1.45" shape-rendering="geometricPrecision" transform="matrix(1,0,0,1,-154,-16)" stroke-linecap="butt">
      <path fill="none" d="M632.9858 403.5 L748.9858 403.5 L748.9858 450.5 L632.9858 450.5 Z" clip-path="url(#clipPath2)"/>
      <text x="637.9937" xml:space="preserve" y="431.1543" clip-path="url(#clipPath2)" font-family="sans-serif" stroke="none">Recommendation</text>
    </g>
    <g fill="url(#linearGradient9)" text-rendering="geometricPrecision" shape-rendering="geometricPrecision" transform="matrix(1,0,0,1,-154,-16)" stroke="url(#linearGradient9)">
      <path d="M522.9858 407 L602.9858 407 L602.9858 447 L522.9858 447 Z" stroke="none" clip-path="url(#clipPath2)"/>
    </g>
    <g text-rendering="geometricPrecision" stroke-miterlimit="1.45" shape-rendering="geometricPrecision" transform="matrix(1,0,0,1,-154,-16)" stroke-linecap="butt">
      <path fill="none" d="M522.9858 407 L602.9858 407 L602.9858 447 L522.9858 447 Z" clip-path="url(#clipPath2)"/>
      <text x="530.2642" xml:space="preserve" y="424.1699" clip-path="url(#clipPath2)" font-family="sans-serif" stroke="none">preference</text>
      <text x="537.064" xml:space="preserve" y="438.1387" clip-path="url(#clipPath2)" font-family="sans-serif" stroke="none">question</text>
    </g>
    <g fill="url(#linearGradient10)" text-rendering="geometricPrecision" shape-rendering="geometricPrecision" transform="matrix(1,0,0,1,-154,-16)" stroke="url(#linearGradient10)">
      <path d="M778.9858 403.5 L883.9858 403.5 L883.9858 447 L778.9858 447 Z" stroke="none" clip-path="url(#clipPath2)"/>
    </g>
    <g text-rendering="geometricPrecision" stroke-miterlimit="1.45" shape-rendering="geometricPrecision" transform="matrix(1,0,0,1,-154,-16)" stroke-linecap="butt">
      <path fill="none" d="M778.9858 403.5 L883.9858 403.5 L883.9858 447 L778.9858 447 Z" clip-path="url(#clipPath2)"/>
      <text x="785.1411" xml:space="preserve" y="422.4199" clip-path="url(#clipPath2)" font-family="sans-serif" stroke="none">comprehension</text>
      <text x="805.564" xml:space="preserve" y="436.3887" clip-path="url(#clipPath2)" font-family="sans-serif" stroke="none">question</text>
    </g>
    <g text-rendering="geometricPrecision" stroke-miterlimit="1.45" shape-rendering="geometricPrecision" transform="matrix(1,0,0,1,-154,-16)" stroke-linecap="butt">
      <path fill="none" d="M441.9858 447.0353 L441.9858 470.5586 L319 470.5586 L319 282.9661" clip-path="url(#clipPath2)"/>
      <path d="M319 274.9661 L314 286.9661 L319 283.9661 L324 286.9661 Z" clip-path="url(#clipPath2)" stroke="none"/>
      <path fill="none" d="M690.9858 335.0339 L690.9858 395.5145" clip-path="url(#clipPath2)"/>
      <path d="M690.9858 403.5145 L695.9858 391.5145 L690.9858 394.5145 L685.9858 391.5145 Z" clip-path="url(#clipPath2)" stroke="none"/>
      <path fill="none" d="M690.9858 450.4851 L690.9858 470.6457 L319 470.6457 L319 283.0263" clip-path="url(#clipPath2)"/>
      <path d="M319 275.0263 L314 287.0263 L319 284.0263 L324 287.0263 Z" clip-path="url(#clipPath2)" stroke="none"/>
      <path fill="none" d="M562.9858 447.0035 L562.9858 470.675 L319 470.675 L319 283.014" clip-path="url(#clipPath2)"/>
      <path d="M319 275.014 L314 287.014 L319 284.014 L324 287.014 Z" clip-path="url(#clipPath2)" stroke="none"/>
      <path fill="none" d="M831.4858 447.0354 L831.4858 470.5 L690.9415 470.5 L319 470.5 L319 283.0256" clip-path="url(#clipPath2)"/>
      <path d="M319 275.0256 L314 287.0256 L319 284.0256 L324 287.0256 Z" clip-path="url(#clipPath2)" stroke="none"/>
    </g>
    <g fill="rgb(245,245,245)" text-rendering="geometricPrecision" shape-rendering="geometricPrecision" transform="matrix(1,0,0,1,-154,-16)" stroke="rgb(245,245,245)">
      <rect x="368.9858" y="31.0537" clip-path="url(#clipPath2)" width="523.5" rx="4" ry="4" height="105.4609" stroke="none"/>
      <rect x="368.9858" y="31.0537" clip-path="url(#clipPath2)" fill="rgb(235,235,235)" width="523.5" height="21.4609" stroke="none"/>
    </g>
    <g font-size="15px" stroke-linecap="butt" transform="matrix(1,0,0,1,-154,-16)" text-rendering="geometricPrecision" font-family="sans-serif" shape-rendering="geometricPrecision" stroke-miterlimit="1.45">
      <text x="569.7031" xml:space="preserve" y="46.9771" clip-path="url(#clipPath2)" stroke="none">Intent Detection</text>
      <rect x="368.9858" y="31.0537" clip-path="url(#clipPath2)" fill="none" width="523.5" stroke-dasharray="6,2" rx="4" ry="4" height="105.4609"/>
    </g>
    <g fill="url(#linearGradient11)" text-rendering="geometricPrecision" shape-rendering="geometricPrecision" transform="matrix(1,0,0,1,-154,-16)" stroke="url(#linearGradient11)">
      <path d="M441.9858 67.5146 L486.9858 94.5146 L441.9858 121.5146 L396.9858 94.5146 Z" stroke="none" clip-path="url(#clipPath2)"/>
    </g>
    <g text-rendering="geometricPrecision" stroke-miterlimit="1.45" shape-rendering="geometricPrecision" transform="matrix(1,0,0,1,-154,-16)" stroke-linecap="butt">
      <path fill="none" d="M441.9858 67.5146 L486.9858 94.5146 L441.9858 121.5146 L396.9858 94.5146 Z" clip-path="url(#clipPath2)"/>
      <text x="416.064" xml:space="preserve" y="98.6689" clip-path="url(#clipPath2)" font-family="sans-serif" stroke="none">question</text>
    </g>
    <g fill="url(#linearGradient12)" text-rendering="geometricPrecision" shape-rendering="geometricPrecision" transform="matrix(1,0,0,1,-154,-16)" stroke="url(#linearGradient12)">
      <path d="M562.9858 67.5146 L607.9858 94.5146 L562.9858 121.5146 L517.9858 94.5146 Z" stroke="none" clip-path="url(#clipPath2)"/>
    </g>
    <g text-rendering="geometricPrecision" stroke-miterlimit="1.45" shape-rendering="geometricPrecision" transform="matrix(1,0,0,1,-154,-16)" stroke-linecap="butt">
      <path fill="none" d="M562.9858 67.5146 L607.9858 94.5146 L562.9858 121.5146 L517.9858 94.5146 Z" clip-path="url(#clipPath2)"/>
      <text x="546.9751" xml:space="preserve" y="98.6689" clip-path="url(#clipPath2)" font-family="sans-serif" stroke="none">greet</text>
    </g>
    <g fill="url(#linearGradient13)" text-rendering="geometricPrecision" shape-rendering="geometricPrecision" transform="matrix(1,0,0,1,-154,-16)" stroke="url(#linearGradient13)">
      <path d="M691.9858 67.5146 L739.9858 94.5146 L691.9858 121.5146 L643.9858 94.5146 Z" stroke="none" clip-path="url(#clipPath2)"/>
    </g>
    <g text-rendering="geometricPrecision" stroke-miterlimit="1.45" shape-rendering="geometricPrecision" transform="matrix(1,0,0,1,-154,-16)" stroke-linecap="butt">
      <path fill="none" d="M691.9858 67.5146 L739.9858 94.5146 L691.9858 121.5146 L643.9858 94.5146 Z" clip-path="url(#clipPath2)"/>
      <text x="659.2642" xml:space="preserve" y="91.6846" clip-path="url(#clipPath2)" font-family="sans-serif" stroke="none">preference</text>
      <text x="661.0952" xml:space="preserve" y="105.6533" clip-path="url(#clipPath2)" font-family="sans-serif" stroke="none">statement</text>
    </g>
    <g fill="url(#linearGradient14)" text-rendering="geometricPrecision" shape-rendering="geometricPrecision" transform="matrix(1,0,0,1,-154,-16)" stroke="url(#linearGradient14)">
      <path d="M829.4858 67.5146 L877.4858 94.5146 L829.4858 121.5146 L781.4858 94.5146 Z" stroke="none" clip-path="url(#clipPath2)"/>
    </g>
    <g text-rendering="geometricPrecision" stroke-miterlimit="1.45" shape-rendering="geometricPrecision" transform="matrix(1,0,0,1,-154,-16)" stroke-linecap="butt">
      <path fill="none" d="M829.4858 67.5146 L877.4858 94.5146 L829.4858 121.5146 L781.4858 94.5146 Z" clip-path="url(#clipPath2)"/>
      <text x="803.4761" xml:space="preserve" y="98.6689" clip-path="url(#clipPath2)" font-family="sans-serif" stroke="none">goodbye</text>
    </g>
    <g fill="url(#linearGradient15)" text-rendering="geometricPrecision" shape-rendering="geometricPrecision" transform="matrix(1,0,0,1,-154,-16)" stroke="url(#linearGradient15)">
      <path d="M522.9858 280.0391 L602.9858 280.0391 L602.9858 320.0391 L522.9858 320.0391 Z" stroke="none" clip-path="url(#clipPath2)"/>
    </g>
    <g text-rendering="geometricPrecision" stroke-miterlimit="1.45" shape-rendering="geometricPrecision" transform="matrix(1,0,0,1,-154,-16)" stroke-linecap="butt">
      <path fill="none" d="M522.9858 280.0391 L602.9858 280.0391 L602.9858 320.0391 L522.9858 320.0391 Z" clip-path="url(#clipPath2)"/>
      <text x="553.8159" xml:space="preserve" y="297.209" clip-path="url(#clipPath2)" font-family="sans-serif" stroke="none">set</text>
      <text x="527.4224" xml:space="preserve" y="311.1777" clip-path="url(#clipPath2)" font-family="sans-serif" stroke="none">expectation</text>
    </g>
    <g text-rendering="geometricPrecision" stroke-miterlimit="1.45" shape-rendering="geometricPrecision" transform="matrix(1,0,0,1,-154,-16)" stroke-linecap="butt">
      <path fill="none" d="M319 234.9849 L319 94.5146 L388.9771 94.5146" clip-path="url(#clipPath2)"/>
      <path d="M396.9771 94.5146 L384.9771 89.5146 L387.9771 94.5146 L384.9771 99.5146 Z" clip-path="url(#clipPath2)" stroke="none"/>
      <path fill="none" d="M441.9858 121.4974 L441.9858 251.2828 L441.9858 251.2828 L441.9858 398.9658" clip-path="url(#clipPath2)"/>
      <path d="M441.9858 406.9658 L446.9858 394.9658 L441.9858 397.9658 L436.9858 394.9658 Z" clip-path="url(#clipPath2)" stroke="none"/>
      <path fill="none" d="M486.9768 94.5146 L509.9668 94.5146" clip-path="url(#clipPath2)"/>
      <path d="M517.9668 94.5146 L505.9668 89.5146 L508.9668 94.5146 L505.9668 99.5146 Z" clip-path="url(#clipPath2)" stroke="none"/>
      <path fill="none" d="M607.991 94.5146 L635.9595 94.5146" clip-path="url(#clipPath2)"/>
      <path d="M643.9595 94.5146 L631.9595 89.5146 L634.9595 94.5146 L631.9595 99.5146 Z" clip-path="url(#clipPath2)" stroke="none"/>
      <path fill="none" d="M691.7119 121.3594 L691.2713 164.5374" clip-path="url(#clipPath2)"/>
      <path d="M691.1897 172.537 L696.3118 160.5886 L691.2815 163.5374 L686.3124 160.4866 Z" clip-path="url(#clipPath2)" stroke="none"/>
      <path fill="none" d="M739.9564 94.5146 L773.4424 94.5146" clip-path="url(#clipPath2)"/>
      <path d="M781.4424 94.5146 L769.4424 89.5146 L772.4424 94.5146 L769.4424 99.5146 Z" clip-path="url(#clipPath2)" stroke="none"/>
      <path fill="none" d="M829.4858 121.5508 L829.4858 164.5214" clip-path="url(#clipPath2)"/>
      <path d="M829.4858 172.5214 L834.4858 160.5214 L829.4858 163.5214 L824.4858 160.5214 Z" clip-path="url(#clipPath2)" stroke="none"/>
      <path fill="none" d="M877.5234 94.5146 L928 94.5146 L928 306 L831.4858 306 L831.4858 395.502" clip-path="url(#clipPath2)"/>
      <path d="M831.4858 403.502 L836.4858 391.502 L831.4858 394.502 L826.4858 391.502 Z" clip-path="url(#clipPath2)" stroke="none"/>
      <path fill="none" d="M562.9858 121.5349 L562.9858 272.0358" clip-path="url(#clipPath2)"/>
      <path d="M562.9858 280.0358 L567.9858 268.0358 L562.9858 271.0358 L557.9858 268.0358 Z" clip-path="url(#clipPath2)" stroke="none"/>
      <path fill="none" d="M632.9546 300.0391 L610.9924 300.0391" clip-path="url(#clipPath2)"/>
      <path d="M602.9924 300.0391 L614.9924 305.0391 L611.9924 300.0391 L614.9924 295.0391 Z" clip-path="url(#clipPath2)" stroke="none"/>
      <path fill="none" d="M562.9858 320.0317 L562.9858 399.0218" clip-path="url(#clipPath2)"/>
      <path d="M562.9858 407.0218 L567.9858 395.0218 L562.9858 398.0218 L557.9858 395.0218 Z" clip-path="url(#clipPath2)" stroke="none"/>
    </g>
  </g>
</svg>
